Coordinates
version=1
nRows=9
nColumns=24
inDegrees=yes

Units are S.I. units (second, meters, Newtons, ...)
Angles are in degrees.

endheader
time	pelvis_tilt	pelvis_list	pelvis_rotation	pelvis_tx	pelvis_ty	pelvis_tz	hip_flexion_r	hip_adduction_r	hip_rotation_r	knee_angle_r	ankle_angle_r	subtalar_angle_r	mtp_angle_r	hip_flexion_l	hip_adduction_l	hip_rotation_l	knee_angle_l	ankle_angle_l	subtalar_angle_l	mtp_angle_l	lumbar_extension	lumbar_bending	lumbar_rotation
      4.03500000	     -8.31990379	     -8.17433332	      1.60750676	     -1.06239932	     -0.01686785	      0.59850100	     14.63772251	     12.30177136	     -8.06900039	    -12.32051510	      0.01814934	     -5.41069853	      4.55337135	     28.46411178	    -14.44924528	     -5.19640964	    -67.97281636	     -8.23518238	     14.91315243	     18.25985232	      6.63979301	      9.42615756	     -2.47536224
      4.04000000	     -8.30664202	     -7.89020677	      1.13226500	     -1.05638086	     -0.01596369	      0.59940537	     13.83939220	     12.21399686	     -7.45018812	    -11.77220891	      0.14028547	     -5.25548182	      4.52430047	     29.13078575	    -14.26774267	     -5.61379257	    -67.57104043	     -8.00737677	     15.09663669	     18.22797078	      6.54198065	      9.19212959	     -1.82181394
      4.04500000	     -8.28176410	     -7.61387939	      0.65339151	     -1.05038603	     -0.01512682	      0.60030385	     13.03921373	     12.12016750	     -6.82241150	    -11.23612780	      0.25588084	     -5.11626634	      4.47302272	     29.76764722	    -14.09859029	     -6.03715293	    -67.10437587	     -7.77373245	     15.23790205	     18.12196607	      6.43094817	      8.96780103	     -1.15767314
      4.05000000	     -8.25093722	     -7.34619903	      0.17126847	     -1.04441433	     -0.01436602	      0.60120343	     12.24410489	     12.02031559	     -6.19684430	    -10.71342468	      0.37381265	     -4.97658090	      4.40748807	     30.38107252	    -13.94315844	     -6.46324502	    -66.57626973	     -7.53182185	     15.34218114	     17.93427061	      6.31460568	      8.75368805	     -0.49274020
      4.05500000	     -8.22384066	     -7.08783913	     -0.30664707	     -1.03845172	     -0.01369406	      0.60209087	     11.46617929	     11.91130897	     -5.59727360	    -10.20651005	      0.50305035	     -4.81010649	      4.34835563	     30.98203906	    -13.80003137	     -6.88833003	    -65.98626372	     -7.28280546	     15.41945336	     17.68620640	      6.20618058	      8.54624570	      0.16015236
      4.06000000	     -8.18999414	     -6.83587352	     -0.78819688	     -1.03251508	     -0.01309547	      0.60297536	     10.69342651	     11.79360609	     -5.00565696	     -9.71415429	      0.64252527	     -4.63021597	      4.29110833	     31.55618014	    -13.66862655	     -7.31877804	    -65.33538777	     -7.03048199	     15.45603746	     17.35551129	      6.09046367	      8.34864057	      0.81814126
      4.06500000	     -8.15923947	     -6.59588310	     -1.26152397	     -1.02658799	     -0.01258431	      0.60384346	      9.93656107	     11.67029554	     -4.44563852	     -9.23500994	      0.78608518	     -4.42618051	      4.24905823	     32.11676804	    -13.54754282	     -7.73843579	    -64.62386481	     -6.77319183	     15.46866762	     16.97261477	      5.98162287	      8.15938381	      1.45796522
      4.07000000	     -8.07638935	     -6.39496193	     -1.70865126	     -1.02071839	     -0.01213039	      0.60466597	      9.12816172	     11.57034656	     -3.86909795	     -8.75109721	      0.92960423	     -4.26774534	      4.17001111	     32.62270274	    -13.45177375	     -8.11426399	    -63.88424968	     -6.47544256	     15.48599690	     16.32981708	      5.80718483	      8.01161305	      2.10436206
      4.07500000	     -8.09662436	     -6.15561639	     -2.17719747	     -1.01478293	     -0.01182329	      0.60553521	      8.45749194	     11.41705189	     -3.39418440	     -8.31244856	      1.10502086	     -3.99432624	      4.19598175	     33.18879040	    -13.33926085	     -8.54052834	    -63.03409578	     -6.23191599	     15.46366325	     15.95566856	      5.76776556	      7.81658790	      2.69273295
